<svg version="1" xmlns="http://www.w3.org/2000/svg" width="933.333" height="933.333" viewBox="0 0 700.000000 700.000000"><path d="M585 15.3c-8.5 5.2-18.6 11.4-22.5 13.8-6.6 4.2-37.8 23.2-44.8 27.3-1.8 1-3.4 2.2-3.7 2.6-.3.4-5 3.3-10.5 6.5s-11.2 6.5-12.7 7.4c-3.1 1.9-27.6 16.8-29.8 18.1-.8.5-4.6 2.8-8.5 5.1-3.8 2.3-9 5.4-11.5 7-2.5 1.6-20.1 12.4-39.2 24.1-38.7 23.7-40.1 24.6-44 27-1.4.9-10 6.1-19 11.6-9 5.4-24.1 14.7-33.6 20.6-9.5 5.8-19.2 11.6-21.5 12.7-2.3 1.2-4.4 2.5-4.7 2.9-.3.4-3.2 2.4-6.5 4.4-3.3 2-9.8 6.1-14.5 9-4.7 3-12.8 7.9-18 11-5.2 3.1-16 9.6-24 14.6-8 4.9-20.3 12.4-27.5 16.6-7.1 4.3-17.7 10.7-23.5 14.4-12.7 8.1-58.8 36-59.5 36-.3 0-3.3 1.9-6.7 4.3-3.5 2.3-17 10.8-30.1 18.7-13.1 8-24.9 15.4-26.3 16.5l-2.5 2 5 3.7c2.7 2 15.9 10 29.3 17.9 13.4 7.8 24.5 14.5 24.8 14.9.3.4 6.8 4.5 14.5 9.2 7.7 4.6 19.7 12 26.8 16.4 7 4.3 13.5 8.4 14.5 8.9.9.6 5.1 3 9.2 5.4 4.1 2.4 11.1 6.7 15.5 9.5 4.4 2.9 15.7 9.9 25 15.5 9.4 5.6 21.7 13.2 27.5 16.7 11.5 7.1 20.4 12.5 35 21.2 5.2 3.2 10.9 6.6 12.5 7.6 12.7 8.2 18.9 12.1 30 18.6 7 4.1 13.9 8.4 15.3 9.6 1.5 1.1 3.5 2.4 4.5 2.7 1 .4 4.2 2.2 7 4 2.9 1.9 8.8 5.6 13.2 8.2 4.4 2.7 15.7 9.7 25 15.5 9.4 5.9 22.3 13.8 28.9 17.6 6.5 3.8 13.5 7.9 15.5 9.1 2 1.2 5.8 3.4 8.6 4.9 2.7 1.5 5.4 3.2 6 3.9.5.7 3.9 2.9 7.5 5s8.8 5.3 11.7 7.1c2.8 1.9 5.4 3.4 5.7 3.4.3 0 6.7 3.9 14.3 8.7 7.6 4.7 15.2 9.4 16.8 10.3 2.5 1.5 28.4 17.3 39.9 24.5 1.8 1.1 6.6 4 10.7 6.4 4.1 2.4 10.4 6.4 14.1 8.8 3.7 2.3 7 4.3 7.4 4.3.3 0 3.7 2 7.5 4.6 3.7 2.5 12.6 7.9 19.6 12l12.8 7.4 1.8-2.2c.9-1.3 6.1-9.3 11.4-17.8 5.3-8.5 11.1-17.8 12.8-20.5 7.7-12.1 30.3-50.2 30.8-52 .6-1.7-1.2-3.2-12.6-10.1-10.7-6.5-64.9-39.8-70.7-43.5-8.5-5.3-40-24.4-41.5-25.3-1.1-.6-7.8-4.8-15-9.2-7.1-4.5-19-11.6-26.2-15.8-7.3-4.3-13.3-8.2-13.3-8.7s-.4-.9-.9-.9c-1 0-18-9.7-20.1-11.5-.8-.7-3.1-2-5-3-1.8-1-4-2.4-4.8-3.2-.8-.7-2.8-2.1-4.5-3-1.8-.8-16.8-9.9-33.5-20.2-16.6-10.2-31-19.1-32-19.6-.9-.6-6.2-3.7-11.7-6.9-5.5-3.2-12.9-7.8-16.5-10.1-3.6-2.3-14.6-9.2-24.5-15.2-9.9-6.1-20.9-12.8-24.5-15.1-7.3-4.6-31-18.9-41.2-24.8-3.7-2.1-6.8-4.2-6.8-4.5 0-.3 3-2.5 6.8-4.9 12-7.7 67.6-41.6 72.2-44.1 2.5-1.3 6.1-3.5 8-5 3-2.2 22.8-14.4 35-21.5 2-1.2 11.5-7 21.1-13 30.3-18.8 32-19.7 33.4-18.2.7.7 6.3 9.8 12.5 20.3 6.2 10.4 12.2 20.6 13.5 22.5 1.2 1.9 10.2 16.9 19.9 33.3 9.8 16.3 18.2 29.9 18.7 30.2.8.5 3.7-1.1 21.4-12 3.5-2.2 16-9.8 27.7-16.9 31-18.9 43.8-27.3 43.8-29 0-1.9-3.9-9.1-11.6-21.6-3.3-5.2-6.5-10.7-7.3-12.3-.8-1.5-2.7-4.2-4.3-5.9-1.5-1.7-2.8-3.5-2.8-3.9 0-.4-3.5-6.5-7.8-13.6-19.6-32.1-22.6-37-25.2-40.8-4.5-6.7-4.5-7.4-.2-11.4 2.9-2.8 33.3-22.1 55.2-35.1.8-.5 9.1-5.5 18.3-11.2 9.2-5.7 18.7-11.4 21-12.7 2.3-1.3 6.5-3.8 9.2-5.6 2.8-1.8 6.1-3.8 7.4-4.5 1.4-.7 3-1.7 3.5-2.1 2.8-2.3 13.5-8.9 14.4-8.9 3.5 0 1-6.8-6.8-18.5-1.5-2.2-7.4-11.9-13.2-21.5-5.7-9.6-13-21.5-16.1-26.3-3.1-4.8-5.7-8.9-5.7-9.1 0-.4-8.4-14.8-10.4-17.9-1-1.5-2.4-2.7-3-2.7-.7 0-8.1 4.2-16.6 9.3z"/></svg>